<?xml version="1.0" encoding="utf-8"?>
<!-- Generator: Adobe Illustrator 18.0.0, SVG Export Plug-In . SVG Version: 6.00 Build 0)  -->
<!DOCTYPE svg PUBLIC "-//W3C//DTD SVG 1.1//EN" "http://www.w3.org/Graphics/SVG/1.1/DTD/svg11.dtd">
<svg version="1.1" id="Layer_1" xmlns="http://www.w3.org/2000/svg" xmlns:xlink="http://www.w3.org/1999/xlink" x="0px" y="0px"
	 viewBox="0 0 30 24" enable-background="new 0 0 30 24" xml:space="preserve">
<g>
	<path fill="#00683E" d="M0.1,23.9c0.5-0.8,0.9-1.6,1.3-2.3c2.1-3.8,4.1-7.7,6.2-11.5c0.1-0.2,0.1-0.4,0-0.6C6.8,8.2,6.1,7,5.3,5.7
		c0.1-0.1,0.2,0,0.3,0c2.3,0,4.7,0,7,0c1.9,0,3.9,0,5.8,0c0.2,0,0.3,0,0.4,0.2c3.7,6,7.4,12,11.1,17.9c0,0,0,0.1,0.1,0.2
		c-4.4,0-8.7,0-13.1,0c0-0.1,0-0.2,0.1-0.2c0.3-0.6,0.7-1.2,1-1.8c0.3-0.6,0.7-1.2,1-1.9c-0.1,0-0.1,0-0.1,0c-3.5,0-7,0-10.4,0
		c-0.2,0-0.3,0.1-0.3,0.2c-0.7,1.2-1.3,2.5-2,3.7c-0.2,0-5.5,0-5.7,0S0,24,0.1,23.9z M13.1,11.1c-0.8,1.5-1.7,3-2.5,4.5
		c1.8,0,3.5,0,5.3,0C14.9,14,14,12.6,13.1,11.1z"/>
	<path fill="#01683F" d="M15.1,0c0.9,1.4,1.7,2.7,2.6,4.1c-0.1,0.1-0.2,0.1-0.2,0.1c-2.8,0-5.7,0-8.5,0c-0.2,0-0.3,0-0.4-0.2
		C7.8,2.6,7,1.3,6.2,0C9.2,0,12.2,0,15.1,0z"/>
</g>
</svg>
